<svg xmlns="http://www.w3.org/2000/svg" version="1.1" xmlns:xlink="http://www.w3.org/1999/xlink" xmlns:svgjs="http://svgjs.dev/svgjs" width="1000" height="1000"><style>
    #light-icon {
      display: inline;
    }
    #dark-icon {
      display: none;
    }

    @media (prefers-color-scheme: dark) {
      #light-icon {
        display: none;
      }
      #dark-icon {
        display: inline;
      }
    }
  </style><g id="light-icon"><svg xmlns="http://www.w3.org/2000/svg" version="1.1" xmlns:xlink="http://www.w3.org/1999/xlink" xmlns:svgjs="http://svgjs.dev/svgjs" width="1000" height="1000"><g><g transform="matrix(0.7142857142857143,0,0,0.7142857142857143,0,0)"><svg xmlns="http://www.w3.org/2000/svg" version="1.1" xmlns:xlink="http://www.w3.org/1999/xlink" xmlns:svgjs="http://svgjs.dev/svgjs" width="1400" height="1400"><svg version="1.1" id="svg1" width="1400" height="1400" viewBox="0 0 1400 1400" sodipodi:docname="rino1.svg" inkscape:version="1.4 (86a8ad7, 2024-10-11)" xmlns:inkscape="http://www.inkscape.org/namespaces/inkscape" xmlns:sodipodi="http://sodipodi.sourceforge.net/DTD/sodipodi-0.dtd" xmlns="http://www.w3.org/2000/svg" xmlns:svg="http://www.w3.org/2000/svg">
  <sodipodi:namedview id="namedview1" pagecolor="#ffffff" bordercolor="#000000" borderopacity="0.25" inkscape:showpageshadow="2" inkscape:pageopacity="0.0" inkscape:pagecheckerboard="0" inkscape:deskcolor="#d1d1d1" inkscape:zoom="0.785" inkscape:cx="699.36306" inkscape:cy="700" inkscape:window-width="2560" inkscape:window-height="1334" inkscape:window-x="-11" inkscape:window-y="-11" inkscape:window-maximized="1" inkscape:current-layer="svg1"></sodipodi:namedview>
  <defs id="defs1"></defs>
  <g id="g1" transform="matrix(1.3436404,0,0,1.3436404,-260.24313,-329.32425)">
    <path style="fill:#000000;stroke-width:2.67382" d="m 246.58357,969.0536 c -4.78972,-3.49811 -5.25399,-7.9516 -6.01662,-57.71537 -0.69939,-45.63665 -0.17621,-54.91712 3.40391,-60.38106 2.32667,-3.55097 6.48263,-6.45627 9.23546,-6.45627 7.32331,0 8.17621,-13.66818 4.83859,-77.54068 -2.42579,-46.42248 -2.23681,-58.4989 1.23458,-78.89004 7.49145,-44.00557 24.30508,-76.57989 55.79873,-108.10317 41.9671,-42.00657 98.65873,-65.13241 177.18128,-72.27634 29.24717,-2.6609 38.58464,-2.48576 79.35016,1.48825 21.93444,2.13828 55.8618,10.58133 80.13553,19.94229 l 21.53941,8.30647 12.66568,-7.78987 c 30.67231,-18.86465 71.60178,-27.15578 109.29419,-22.13986 44.84357,5.96755 67.78558,18.43077 105.76859,57.45863 15.7295,16.16217 29.04871,28.81941 29.59826,28.1272 0.54955,-0.69219 2.41566,-6.19857 4.1469,-12.23643 3.92147,-13.67627 21.74579,-34.27214 35.91692,-41.50172 5.8909,-3.00533 16.87413,-6.09693 24.4071,-6.87021 19.69896,-2.02215 24.45056,3.7749 24.22306,29.55266 -0.2017,22.8474 -6.7513,39.50676 -20.76889,52.82726 l -9.52951,9.0557 6.68581,5.34764 c 5.06139,4.04836 7.18639,9.04095 8.74639,20.54902 4.6976,34.65564 23.2817,31.38596 42.6959,-7.51192 9.2851,-18.60367 13.5737,-21.34992 24.5095,-15.6948 15.2574,7.88993 29.3808,33.9903 29.3808,54.29662 v 9.52243 l 8.1704,-7.82778 c 13.8485,-13.26761 24.1444,-37.79932 26.2762,-62.60757 1.8845,-21.928 4.3624,-26.68966 13.9363,-26.78159 12.5816,-0.12085 31.9729,43.78805 35.9968,81.51046 4.6393,43.49126 -16.7608,85.81146 -57.0954,112.90976 l -15.2521,10.24697 -0.5771,27.99448 c -0.524,25.4115 -1.1314,28.44658 -6.5847,32.89417 -4.1474,3.38265 -8.4186,4.4175 -13.7946,3.34227 -4.2829,-0.85658 -31.1756,-1.5574 -59.7617,-1.5574 h -51.97447 l -20.55274,-19.51462 c -27.40252,-26.01834 -46.30445,-39.92564 -68.17367,-50.15948 -15.43206,-7.22153 -36.60433,-14.16155 -36.60433,-11.99846 0,0.35894 4.69955,19.18289 10.44345,41.83103 21.89145,86.31779 32.92978,140.69162 29.76286,146.60909 -2.84171,5.30981 -5.10442,5.53269 -56.15231,5.53269 -42.61129,0 -53.95339,-0.76208 -57.02292,-3.83158 -2.10743,-2.10749 -5.7863,-11.61322 -8.17533,-21.12392 -2.38901,-9.51071 -7.92346,-26.58878 -12.29876,-37.95126 -12.23546,-31.77503 -34.20431,-66.50127 -35.05376,-55.40958 -0.0845,1.10294 -1.108,26.33152 -2.27454,56.06353 -1.45332,37.04161 -3.19135,55.34793 -5.52145,58.15549 -2.8639,3.45081 -12.57916,4.09732 -61.56965,4.09732 -51.00788,0 -58.62094,-0.54791 -61.83884,-4.4504 -6.12193,-7.42447 -4.30659,-74.51571 2.73108,-100.93492 9.11863,-34.23105 24.98048,-56.24065 47.80897,-66.33877 14.98096,-6.62679 40.62579,-6.68027 58.1817,-0.12139 l 13.27795,4.96073 16.0456,-16.15734 c 17.96644,-18.09152 37.79555,-28.9139 64.9346,-35.44013 9.87307,-2.37418 18.33786,-4.60762 18.81067,-4.96313 2.0079,-1.50985 -16.7683,-44.30044 -28.07841,-63.98999 -25.36441,-44.15652 -58.55525,-80.77599 -95.46682,-105.32863 l -18.40672,-12.2437 -17.68981,18.92473 c -9.72937,10.40861 -26.19583,30.8463 -36.59213,45.41711 -20.01611,28.05328 -26.5279,32.31002 -36.1314,23.61896 -2.8199,-2.55189 -5.12711,-5.76078 -5.12711,-7.13077 0,-4.26426 26.2169,-40.66118 48.0517,-66.71019 11.47512,-13.68981 20.34,-25.77203 19.69978,-26.84934 -2.2356,-3.76183 -45.33007,-15.39717 -71.80815,-19.38793 -34.22886,-5.15897 -65.64061,-5.11805 -103.47252,0.13476 -73.10794,10.15072 -129.66243,41.45299 -160.67421,88.9313 -26.5865,40.70337 -29.70239,57.45472 -27.19156,146.18596 2.05838,72.74251 0.77611,84.0857 -10.72695,94.89224 -6.5423,6.14615 -6.7146,7.25658 -6.7146,43.27535 v 36.96736 h 32.32008 32.32008 l -0.78317,-34.49275 c -0.55471,-24.43157 0.17888,-35.652 2.51516,-38.46693 1.96827,-2.37165 10.54564,-4.70285 21.27093,-5.78115 38.80171,-3.90101 80.35413,-18.98591 107.52037,-39.03343 l 12.00706,-8.86071 -9.31043,-3.79904 c -5.12071,-2.08948 -22.55608,-4.72041 -38.74521,-5.84651 -55.63705,-3.87006 -80.89202,-16.45063 -96.98703,-48.31346 -44.17228,-87.44655 28.2633,-182.05339 124.07412,-162.05102 36.00543,7.51682 61.1087,26.4992 76.96881,58.20173 12.20596,24.39828 15.8518,43.49492 14.22818,74.52605 -1.50627,28.78797 -7.72054,48.23838 -22.36397,69.99843 l -9.26033,13.7608 7.89977,8.26038 c 9.99929,10.45583 22.67252,35.63377 28.38325,56.38911 5.71034,20.75397 8.57281,78.43059 4.28965,86.43376 -3.03418,5.66952 -4.42583,5.81287 -56.39913,5.81287 -50.00121,0 -53.45939,-0.31994 -56.06411,-5.18688 -3.50367,-6.54663 -9.60841,-69.9333 -7.31172,-75.91847 2.62606,-6.84337 16.95497,-5.8067 21.55328,1.55934 2.0656,3.30885 4.47907,16.16257 5.36328,28.56382 0.88421,12.40126 2.63085,23.57094 3.88142,24.82151 1.25057,1.25058 16.61232,1.93307 34.13717,1.51662 l 31.86339,-0.75716 -0.87549,-20.05363 c -1.55902,-35.70938 -10.09585,-63.27447 -26.28256,-84.86536 l -6.49361,-8.66159 -13.2251,10.45382 C 454.628,866.97111 420.63258,882.0381 380.98946,889.65579 l -23.50665,4.51696 -0.55769,35.54374 c -0.4978,31.72851 -1.11479,35.95076 -5.74789,39.33566 -7.51065,5.48721 -97.0805,5.48839 -104.59366,0 z m 451.18444,-67.06566 c 1.10012,-27.38664 3.39439,-50.52627 5.77179,-58.21318 l 3.94585,-12.7583 -8.4456,-4.48452 c -4.90931,-2.60682 -14.71308,-4.52322 -23.41415,-4.57693 -27.2048,-0.16791 -45.36162,19.02168 -54.44027,57.53713 -4.09647,17.37908 -5.66731,64.17627 -2.26828,67.57531 1.01905,1.01904 18.7665,1.52038 39.4388,1.11409 l 37.58597,-0.73871 z m 170.63526,45.50462 c 0,-1.15456 -30.04685,-125.60159 -37.93947,-157.13645 -2.9296,-11.70513 -3.82024,-12.69814 -11.36316,-12.66889 -11.35583,0.0441 -32.72241,6.0493 -46.39662,13.04018 -11.32372,5.78919 -32.64393,25.42791 -32.64393,30.06934 0,1.31404 5.62822,9.29068 12.50718,17.72585 15.12909,18.55176 33.24941,55.86381 41.54671,85.54993 l 6.10698,21.8496 32.08579,0.85066 c 17.64719,0.46788 32.98822,1.11085 34.09116,1.42882 1.10295,0.31797 2.00536,-7.6e-4 2.00536,-0.70904 z M 1087.6562,808.44942 v -28.03004 l 13.8165,-7.00133 c 19.015,-9.63564 40.9121,-31.09421 49.3696,-48.38121 7.844,-16.03237 11.0049,-43.05495 7.1196,-60.86692 l -2.2997,-10.54363 -7.5548,14.93173 c -15.1505,29.94437 -46.5956,58.29495 -64.658,58.29495 -15.2663,0 -16.6964,-5.5057 -9.0359,-34.78694 2.6462,-10.11482 2.4538,-13.73766 -1.1932,-22.46639 l -4.3484,-10.40687 -8.3147,12.55298 c -11.6815,17.63588 -23.9186,26.24398 -39.426,27.73405 -11.5839,1.11306 -13.8103,0.36557 -23.03448,-7.73339 -11.0417,-9.6947 -19.91436,-26.2495 -20.00824,-37.33169 -0.0481,-5.73618 -1.88024,-7.47548 -10.63353,-10.09805 -5.81614,-1.74255 -13.93784,-5.94543 -18.0482,-9.33975 -4.11043,-3.3943 -13.93818,-9.64998 -21.83943,-13.90151 -8.36938,-4.50343 -26.2268,-19.5506 -42.78107,-36.04853 -33.22011,-33.10708 -45.08727,-40.71731 -75.47752,-48.40233 -28.62749,-7.23928 -59.32122,-5.82563 -86.2785,3.97368 -10.10173,3.6721 -19.45076,7.76052 -20.77558,9.08534 -1.42918,1.42919 3.80998,6.68225 12.88261,12.91687 21.07378,14.48171 55.25086,49.37444 73.93612,75.48436 17.3404,24.2307 40.51838,68.11834 50.13326,94.92771 l 6.28957,17.53726 15.2301,2.68276 c 34.99877,6.16488 75.33742,29.02053 111.60795,63.23637 l 18.18346,17.15336 30.52098,0.85704 c 16.7865,0.47138 38.6427,1.11425 48.5693,1.42859 l 18.0482,0.57155 z M 949.46101,724.01574 c -13.35457,-5.04972 -14.98616,-23.82634 -2.854,-32.84445 9.1115,-6.7728 19.87453,-3.95099 25.90411,6.79144 8.02459,14.29677 -7.55908,31.91055 -23.05011,26.05301 z m -444.24759,54.77732 c 29.20787,-54.36572 11.69448,-123.31387 -37.45335,-147.4494 -13.0118,-6.38983 -18.32385,-7.42112 -37.86268,-7.35073 -19.24948,0.0693 -25.30543,1.25975 -39.57376,7.77873 -20.75039,9.4805 -38.40468,28.1454 -44.78185,47.34527 -6.11695,18.41636 -4.37604,52.77696 3.43461,67.78966 13.36033,25.67968 28.60613,32.83525 79.89877,37.50017 26.17324,2.3804 41.34108,5.07814 49.46561,8.79793 6.44461,2.95066 12.88899,5.08153 14.32085,4.7353 1.43188,-0.34625 7.08018,-8.96239 12.5518,-19.14693 z M 982.23238,594.47925 c 6.17286,-6.54521 9.39442,-13.04422 10.66466,-21.51406 1.00086,-6.67473 1.02573,-12.92994 0.0554,-13.90045 -2.93794,-2.93794 -20.47126,7.97965 -27.39663,17.05924 -3.57399,4.68579 -7.19975,12.84272 -8.05717,18.12653 -1.52255,9.38229 -1.35501,9.60691 7.16503,9.60691 6.5101,0 10.96862,-2.3799 17.56882,-9.37817 z" id="path10"></path>
  </g>
</svg></svg></g></g></svg></g><g id="dark-icon"><svg xmlns="http://www.w3.org/2000/svg" version="1.1" xmlns:xlink="http://www.w3.org/1999/xlink" xmlns:svgjs="http://svgjs.dev/svgjs" width="1000" height="1000"><g clip-path="url(#SvgjsClipPath1640)"><rect width="1000" height="1000" fill="#ffffff"></rect><g transform="matrix(0.7142857142857143,0,0,0.7142857142857143,0,0)"><svg xmlns="http://www.w3.org/2000/svg" version="1.1" xmlns:xlink="http://www.w3.org/1999/xlink" xmlns:svgjs="http://svgjs.dev/svgjs" width="1400" height="1400"><svg version="1.1" id="svg1" width="1400" height="1400" viewBox="0 0 1400 1400" sodipodi:docname="rino1.svg" inkscape:version="1.4 (86a8ad7, 2024-10-11)" xmlns:inkscape="http://www.inkscape.org/namespaces/inkscape" xmlns:sodipodi="http://sodipodi.sourceforge.net/DTD/sodipodi-0.dtd" xmlns="http://www.w3.org/2000/svg" xmlns:svg="http://www.w3.org/2000/svg">
  <sodipodi:namedview id="namedview1" pagecolor="#ffffff" bordercolor="#000000" borderopacity="0.25" inkscape:showpageshadow="2" inkscape:pageopacity="0.0" inkscape:pagecheckerboard="0" inkscape:deskcolor="#d1d1d1" inkscape:zoom="0.785" inkscape:cx="699.36306" inkscape:cy="700" inkscape:window-width="2560" inkscape:window-height="1334" inkscape:window-x="-11" inkscape:window-y="-11" inkscape:window-maximized="1" inkscape:current-layer="svg1"></sodipodi:namedview>
  <defs id="defs1"><clipPath id="SvgjsClipPath1640"><rect width="1000" height="1000" x="0" y="0" rx="500" ry="500"></rect></clipPath></defs>
  <g id="g1" transform="matrix(1.3436404,0,0,1.3436404,-260.24313,-329.32425)">
    <path style="fill:#000000;stroke-width:2.67382" d="m 246.58357,969.0536 c -4.78972,-3.49811 -5.25399,-7.9516 -6.01662,-57.71537 -0.69939,-45.63665 -0.17621,-54.91712 3.40391,-60.38106 2.32667,-3.55097 6.48263,-6.45627 9.23546,-6.45627 7.32331,0 8.17621,-13.66818 4.83859,-77.54068 -2.42579,-46.42248 -2.23681,-58.4989 1.23458,-78.89004 7.49145,-44.00557 24.30508,-76.57989 55.79873,-108.10317 41.9671,-42.00657 98.65873,-65.13241 177.18128,-72.27634 29.24717,-2.6609 38.58464,-2.48576 79.35016,1.48825 21.93444,2.13828 55.8618,10.58133 80.13553,19.94229 l 21.53941,8.30647 12.66568,-7.78987 c 30.67231,-18.86465 71.60178,-27.15578 109.29419,-22.13986 44.84357,5.96755 67.78558,18.43077 105.76859,57.45863 15.7295,16.16217 29.04871,28.81941 29.59826,28.1272 0.54955,-0.69219 2.41566,-6.19857 4.1469,-12.23643 3.92147,-13.67627 21.74579,-34.27214 35.91692,-41.50172 5.8909,-3.00533 16.87413,-6.09693 24.4071,-6.87021 19.69896,-2.02215 24.45056,3.7749 24.22306,29.55266 -0.2017,22.8474 -6.7513,39.50676 -20.76889,52.82726 l -9.52951,9.0557 6.68581,5.34764 c 5.06139,4.04836 7.18639,9.04095 8.74639,20.54902 4.6976,34.65564 23.2817,31.38596 42.6959,-7.51192 9.2851,-18.60367 13.5737,-21.34992 24.5095,-15.6948 15.2574,7.88993 29.3808,33.9903 29.3808,54.29662 v 9.52243 l 8.1704,-7.82778 c 13.8485,-13.26761 24.1444,-37.79932 26.2762,-62.60757 1.8845,-21.928 4.3624,-26.68966 13.9363,-26.78159 12.5816,-0.12085 31.9729,43.78805 35.9968,81.51046 4.6393,43.49126 -16.7608,85.81146 -57.0954,112.90976 l -15.2521,10.24697 -0.5771,27.99448 c -0.524,25.4115 -1.1314,28.44658 -6.5847,32.89417 -4.1474,3.38265 -8.4186,4.4175 -13.7946,3.34227 -4.2829,-0.85658 -31.1756,-1.5574 -59.7617,-1.5574 h -51.97447 l -20.55274,-19.51462 c -27.40252,-26.01834 -46.30445,-39.92564 -68.17367,-50.15948 -15.43206,-7.22153 -36.60433,-14.16155 -36.60433,-11.99846 0,0.35894 4.69955,19.18289 10.44345,41.83103 21.89145,86.31779 32.92978,140.69162 29.76286,146.60909 -2.84171,5.30981 -5.10442,5.53269 -56.15231,5.53269 -42.61129,0 -53.95339,-0.76208 -57.02292,-3.83158 -2.10743,-2.10749 -5.7863,-11.61322 -8.17533,-21.12392 -2.38901,-9.51071 -7.92346,-26.58878 -12.29876,-37.95126 -12.23546,-31.77503 -34.20431,-66.50127 -35.05376,-55.40958 -0.0845,1.10294 -1.108,26.33152 -2.27454,56.06353 -1.45332,37.04161 -3.19135,55.34793 -5.52145,58.15549 -2.8639,3.45081 -12.57916,4.09732 -61.56965,4.09732 -51.00788,0 -58.62094,-0.54791 -61.83884,-4.4504 -6.12193,-7.42447 -4.30659,-74.51571 2.73108,-100.93492 9.11863,-34.23105 24.98048,-56.24065 47.80897,-66.33877 14.98096,-6.62679 40.62579,-6.68027 58.1817,-0.12139 l 13.27795,4.96073 16.0456,-16.15734 c 17.96644,-18.09152 37.79555,-28.9139 64.9346,-35.44013 9.87307,-2.37418 18.33786,-4.60762 18.81067,-4.96313 2.0079,-1.50985 -16.7683,-44.30044 -28.07841,-63.98999 -25.36441,-44.15652 -58.55525,-80.77599 -95.46682,-105.32863 l -18.40672,-12.2437 -17.68981,18.92473 c -9.72937,10.40861 -26.19583,30.8463 -36.59213,45.41711 -20.01611,28.05328 -26.5279,32.31002 -36.1314,23.61896 -2.8199,-2.55189 -5.12711,-5.76078 -5.12711,-7.13077 0,-4.26426 26.2169,-40.66118 48.0517,-66.71019 11.47512,-13.68981 20.34,-25.77203 19.69978,-26.84934 -2.2356,-3.76183 -45.33007,-15.39717 -71.80815,-19.38793 -34.22886,-5.15897 -65.64061,-5.11805 -103.47252,0.13476 -73.10794,10.15072 -129.66243,41.45299 -160.67421,88.9313 -26.5865,40.70337 -29.70239,57.45472 -27.19156,146.18596 2.05838,72.74251 0.77611,84.0857 -10.72695,94.89224 -6.5423,6.14615 -6.7146,7.25658 -6.7146,43.27535 v 36.96736 h 32.32008 32.32008 l -0.78317,-34.49275 c -0.55471,-24.43157 0.17888,-35.652 2.51516,-38.46693 1.96827,-2.37165 10.54564,-4.70285 21.27093,-5.78115 38.80171,-3.90101 80.35413,-18.98591 107.52037,-39.03343 l 12.00706,-8.86071 -9.31043,-3.79904 c -5.12071,-2.08948 -22.55608,-4.72041 -38.74521,-5.84651 -55.63705,-3.87006 -80.89202,-16.45063 -96.98703,-48.31346 -44.17228,-87.44655 28.2633,-182.05339 124.07412,-162.05102 36.00543,7.51682 61.1087,26.4992 76.96881,58.20173 12.20596,24.39828 15.8518,43.49492 14.22818,74.52605 -1.50627,28.78797 -7.72054,48.23838 -22.36397,69.99843 l -9.26033,13.7608 7.89977,8.26038 c 9.99929,10.45583 22.67252,35.63377 28.38325,56.38911 5.71034,20.75397 8.57281,78.43059 4.28965,86.43376 -3.03418,5.66952 -4.42583,5.81287 -56.39913,5.81287 -50.00121,0 -53.45939,-0.31994 -56.06411,-5.18688 -3.50367,-6.54663 -9.60841,-69.9333 -7.31172,-75.91847 2.62606,-6.84337 16.95497,-5.8067 21.55328,1.55934 2.0656,3.30885 4.47907,16.16257 5.36328,28.56382 0.88421,12.40126 2.63085,23.57094 3.88142,24.82151 1.25057,1.25058 16.61232,1.93307 34.13717,1.51662 l 31.86339,-0.75716 -0.87549,-20.05363 c -1.55902,-35.70938 -10.09585,-63.27447 -26.28256,-84.86536 l -6.49361,-8.66159 -13.2251,10.45382 C 454.628,866.97111 420.63258,882.0381 380.98946,889.65579 l -23.50665,4.51696 -0.55769,35.54374 c -0.4978,31.72851 -1.11479,35.95076 -5.74789,39.33566 -7.51065,5.48721 -97.0805,5.48839 -104.59366,0 z m 451.18444,-67.06566 c 1.10012,-27.38664 3.39439,-50.52627 5.77179,-58.21318 l 3.94585,-12.7583 -8.4456,-4.48452 c -4.90931,-2.60682 -14.71308,-4.52322 -23.41415,-4.57693 -27.2048,-0.16791 -45.36162,19.02168 -54.44027,57.53713 -4.09647,17.37908 -5.66731,64.17627 -2.26828,67.57531 1.01905,1.01904 18.7665,1.52038 39.4388,1.11409 l 37.58597,-0.73871 z m 170.63526,45.50462 c 0,-1.15456 -30.04685,-125.60159 -37.93947,-157.13645 -2.9296,-11.70513 -3.82024,-12.69814 -11.36316,-12.66889 -11.35583,0.0441 -32.72241,6.0493 -46.39662,13.04018 -11.32372,5.78919 -32.64393,25.42791 -32.64393,30.06934 0,1.31404 5.62822,9.29068 12.50718,17.72585 15.12909,18.55176 33.24941,55.86381 41.54671,85.54993 l 6.10698,21.8496 32.08579,0.85066 c 17.64719,0.46788 32.98822,1.11085 34.09116,1.42882 1.10295,0.31797 2.00536,-7.6e-4 2.00536,-0.70904 z M 1087.6562,808.44942 v -28.03004 l 13.8165,-7.00133 c 19.015,-9.63564 40.9121,-31.09421 49.3696,-48.38121 7.844,-16.03237 11.0049,-43.05495 7.1196,-60.86692 l -2.2997,-10.54363 -7.5548,14.93173 c -15.1505,29.94437 -46.5956,58.29495 -64.658,58.29495 -15.2663,0 -16.6964,-5.5057 -9.0359,-34.78694 2.6462,-10.11482 2.4538,-13.73766 -1.1932,-22.46639 l -4.3484,-10.40687 -8.3147,12.55298 c -11.6815,17.63588 -23.9186,26.24398 -39.426,27.73405 -11.5839,1.11306 -13.8103,0.36557 -23.03448,-7.73339 -11.0417,-9.6947 -19.91436,-26.2495 -20.00824,-37.33169 -0.0481,-5.73618 -1.88024,-7.47548 -10.63353,-10.09805 -5.81614,-1.74255 -13.93784,-5.94543 -18.0482,-9.33975 -4.11043,-3.3943 -13.93818,-9.64998 -21.83943,-13.90151 -8.36938,-4.50343 -26.2268,-19.5506 -42.78107,-36.04853 -33.22011,-33.10708 -45.08727,-40.71731 -75.47752,-48.40233 -28.62749,-7.23928 -59.32122,-5.82563 -86.2785,3.97368 -10.10173,3.6721 -19.45076,7.76052 -20.77558,9.08534 -1.42918,1.42919 3.80998,6.68225 12.88261,12.91687 21.07378,14.48171 55.25086,49.37444 73.93612,75.48436 17.3404,24.2307 40.51838,68.11834 50.13326,94.92771 l 6.28957,17.53726 15.2301,2.68276 c 34.99877,6.16488 75.33742,29.02053 111.60795,63.23637 l 18.18346,17.15336 30.52098,0.85704 c 16.7865,0.47138 38.6427,1.11425 48.5693,1.42859 l 18.0482,0.57155 z M 949.46101,724.01574 c -13.35457,-5.04972 -14.98616,-23.82634 -2.854,-32.84445 9.1115,-6.7728 19.87453,-3.95099 25.90411,6.79144 8.02459,14.29677 -7.55908,31.91055 -23.05011,26.05301 z m -444.24759,54.77732 c 29.20787,-54.36572 11.69448,-123.31387 -37.45335,-147.4494 -13.0118,-6.38983 -18.32385,-7.42112 -37.86268,-7.35073 -19.24948,0.0693 -25.30543,1.25975 -39.57376,7.77873 -20.75039,9.4805 -38.40468,28.1454 -44.78185,47.34527 -6.11695,18.41636 -4.37604,52.77696 3.43461,67.78966 13.36033,25.67968 28.60613,32.83525 79.89877,37.50017 26.17324,2.3804 41.34108,5.07814 49.46561,8.79793 6.44461,2.95066 12.88899,5.08153 14.32085,4.7353 1.43188,-0.34625 7.08018,-8.96239 12.5518,-19.14693 z M 982.23238,594.47925 c 6.17286,-6.54521 9.39442,-13.04422 10.66466,-21.51406 1.00086,-6.67473 1.02573,-12.92994 0.0554,-13.90045 -2.93794,-2.93794 -20.47126,7.97965 -27.39663,17.05924 -3.57399,4.68579 -7.19975,12.84272 -8.05717,18.12653 -1.52255,9.38229 -1.35501,9.60691 7.16503,9.60691 6.5101,0 10.96862,-2.3799 17.56882,-9.37817 z" id="path10"></path>
  </g>
</svg></svg></g></g></svg></g></svg>